<?xml version="1.0" encoding="utf-8"?>
<!-- Generator: Adobe Illustrator 15.1.0, SVG Export Plug-In . SVG Version: 6.00 Build 0)  -->
<!DOCTYPE svg PUBLIC "-//W3C//DTD SVG 1.1//EN" "http://www.w3.org/Graphics/SVG/1.1/DTD/svg11.dtd">
<svg version="1.1" id="favicon" xmlns="http://www.w3.org/2000/svg" xmlns:xlink="http://www.w3.org/1999/xlink" x="0px" y="0px"
	 width="60.191px" height="56.664px" viewBox="0 0 60.191 56.664" enable-background="new 0 0 60.191 56.664" xml:space="preserve">
<g>
	<path d="M6.696,18.432H20.88v5.616H6.696v17.28c0,1.872,0.144,3.42,0.432,4.644s0.72,2.185,1.296,2.88
		C9,49.548,9.72,50.04,10.584,50.328c0.864,0.288,1.872,0.432,3.024,0.432c2.016,0,3.636-0.228,4.86-0.684
		c1.224-0.456,2.076-0.78,2.556-0.972l1.296,5.544c-0.673,0.336-1.848,0.756-3.528,1.26c-1.681,0.504-3.6,0.756-5.76,0.756
		c-2.544,0-4.644-0.324-6.3-0.972c-1.656-0.648-2.988-1.62-3.996-2.916c-1.008-1.296-1.717-2.891-2.124-4.788
		C0.204,46.092,0,43.896,0,41.4V7.992L6.696,6.84V18.432z" fill="#38ab4b"/>
	<path d="M42.911,35.28c1.44,1.104,2.963,2.473,4.572,4.104c1.607,1.632,3.191,3.396,4.752,5.292
		c1.559,1.896,3.035,3.816,4.428,5.76c1.392,1.944,2.567,3.756,3.528,5.436h-7.848c-1.008-1.68-2.172-3.395-3.492-5.148
		c-1.321-1.751-2.7-3.431-4.14-5.04c-1.44-1.607-2.905-3.083-4.392-4.428c-1.488-1.343-2.905-2.471-4.248-3.384v18h-6.696V1.152
		L36.071,0v34.128c1.152-1.152,2.423-2.423,3.816-3.816c1.392-1.392,2.76-2.808,4.104-4.248c1.343-1.44,2.616-2.819,3.816-4.14
		c1.199-1.319,2.232-2.484,3.096-3.492h7.848c-1.105,1.2-2.304,2.52-3.6,3.96s-2.641,2.893-4.032,4.356
		c-1.393,1.465-2.797,2.928-4.212,4.392C45.491,32.605,44.159,33.984,42.911,35.28z" fill="#38ab4b"/>
</g>
</svg>
